# Tiled2Unity generated file. Do not modify by hand.
# Wavefront file for 'main_mesh_0003.obj'

# Vertices (Count = 124)
v -48 -32 0
v -64 -32 0
v -64 -16 0
v -48 -16 0
v -160 -32 0
v -176 -32 0
v -176 -16 0
v -160 -16 0
v -288 -32 0
v -304 -32 0
v -304 -16 0
v -288 -16 0
v -816 -48 0
v -832 -48 0
v -832 -32 0
v -816 -32 0
v -928 -48 0
v -944 -48 0
v -944 -32 0
v -928 -32 0
v -144 -80 0
v -160 -80 0
v -160 -64 0
v -144 -64 0
v -144 -96 0
v -160 -96 0
v -160 -80 0
v -144 -80 0
v -480 -112 0
v -496 -112 0
v -496 -96 0
v -480 -96 0
v -464 -128 0
v -480 -128 0
v -480 -112 0
v -464 -112 0
v -608 -128 0
v -624 -128 0
v -624 -112 0
v -608 -112 0
v -208 -144 0
v -224 -144 0
v -224 -128 0
v -208 -128 0
v -128 -208 0
v -144 -208 0
v -144 -192 0
v -128 -192 0
v -144 -208 0
v -160 -208 0
v -160 -192 0
v -144 -192 0
v -448 -208 0
v -464 -208 0
v -464 -192 0
v -448 -192 0
v -464 -208 0
v -480 -208 0
v -480 -192 0
v -464 -192 0
v -528 -208 0
v -544 -208 0
v -544 -192 0
v -528 -192 0
v -544 -208 0
v -560 -208 0
v -560 -192 0
v -544 -192 0
v -576 -208 0
v -592 -208 0
v -592 -192 0
v -576 -192 0
v -592 -208 0
v -608 -208 0
v -608 -192 0
v -592 -192 0
v -624 -208 0
v -640 -208 0
v -640 -192 0
v -624 -192 0
v -640 -208 0
v -656 -208 0
v -656 -192 0
v -640 -192 0
v -128 -224 0
v -144 -224 0
v -144 -208 0
v -128 -208 0
v -144 -224 0
v -160 -224 0
v -160 -208 0
v -144 -208 0
v -448 -224 0
v -464 -224 0
v -464 -208 0
v -448 -208 0
v -464 -224 0
v -480 -224 0
v -480 -208 0
v -464 -208 0
v -528 -224 0
v -544 -224 0
v -544 -208 0
v -528 -208 0
v -544 -224 0
v -560 -224 0
v -560 -208 0
v -544 -208 0
v -576 -224 0
v -592 -224 0
v -592 -208 0
v -576 -208 0
v -592 -224 0
v -608 -224 0
v -608 -208 0
v -592 -208 0
v -624 -224 0
v -640 -224 0
v -640 -208 0
v -624 -208 0
v -640 -224 0
v -656 -224 0
v -656 -208 0
v -640 -208 0

# Texture cooridinates (Count = 20)
vt 0.625 0.9375
vt 0.6875 0.9375
vt 0.6875 1
vt 0.625 1
vt 0.3125 0.9375
vt 0.375 0.9375
vt 0.375 1
vt 0.3125 1
vt 0.3125 0.875
vt 0.375 0.875
vt 0.5625 0.9375
vt 0.5625 1
vt 0.4375 0.9375
vt 0.4375 1
vt 0.5 0.9375
vt 0.5 1
vt 0.625 0.875
vt 0.5625 0.875
vt 0.4375 0.875
vt 0.5 0.875

# Normal
vn 0 0 -1

# Mesh description
g main_mesh_0003

# Faces
f 1/1/1 2/2/1 3/3/1 4/4/1
f 5/1/1 6/2/1 7/3/1 8/4/1
f 9/1/1 10/2/1 11/3/1 12/4/1
f 13/1/1 14/2/1 15/3/1 16/4/1
f 17/1/1 18/2/1 19/3/1 20/4/1
f 21/5/1 22/6/1 23/7/1 24/8/1
f 25/9/1 26/10/1 27/6/1 28/5/1
f 29/1/1 30/2/1 31/3/1 32/4/1
f 33/1/1 34/2/1 35/3/1 36/4/1
f 37/1/1 38/2/1 39/3/1 40/4/1
f 41/1/1 42/2/1 43/3/1 44/4/1
f 45/6/1 46/5/1 47/8/1 48/7/1
f 49/1/1 50/11/1 51/12/1 52/4/1
f 53/6/1 54/13/1 55/14/1 56/7/1
f 57/13/1 58/15/1 59/16/1 60/14/1
f 61/11/1 62/1/1 63/4/1 64/12/1
f 65/5/1 66/6/1 67/7/1 68/8/1
f 69/11/1 70/1/1 71/4/1 72/12/1
f 73/5/1 74/6/1 75/7/1 76/8/1
f 77/11/1 78/1/1 79/4/1 80/12/1
f 81/5/1 82/6/1 83/7/1 84/8/1
f 85/10/1 86/9/1 87/5/1 88/6/1
f 89/17/1 90/18/1 91/11/1 92/1/1
f 93/10/1 94/19/1 95/13/1 96/6/1
f 97/19/1 98/20/1 99/15/1 100/13/1
f 101/18/1 102/17/1 103/1/1 104/11/1
f 105/9/1 106/10/1 107/6/1 108/5/1
f 109/18/1 110/17/1 111/1/1 112/11/1
f 113/9/1 114/10/1 115/6/1 116/5/1
f 117/18/1 118/17/1 119/1/1 120/11/1
f 121/9/1 122/10/1 123/6/1 124/5/1

